<svg xmlns="http://www.w3.org/2000/svg" width="17.134" height="12.469"><g data-name="Сгруппировать 94"><path data-name="Контур 10" d="M17.134 11.121a1.81 1.81 0 01-.4.83 1.536 1.536 0 01-1.021.506c-.117.009-.234.009-.351.009H1.714a1.688 1.688 0 01-1.149-.367 1.518 1.518 0 01-.559-1.183c-.007-.524 0-1.048 0-1.572V1.617A1.539 1.539 0 011.169.057a1.872 1.872 0 01.5-.053c4.6 0 9.21 0 13.815-.007a1.6 1.6 0 011.632 1.289.364.364 0 00.025.061zM1.293.808l.116.129Q4.709 4.229 8 7.523a.744.744 0 001.148-.009L15.713.949c.033-.033.062-.071.123-.141zm.06 10.84c.325.068 14.235.054 14.422-.008l-4.818-4.819c-.02.019-.061.055-.1.093-.387.386-.772.774-1.16 1.158a1.524 1.524 0 01-2.258 0q-.53-.522-1.052-1.053a2.646 2.646 0 01-.183-.222zm4.156-5.41L.794 1.481v9.514zm6.118 0l4.715 4.758V1.481z" fill="#ae0018"/></g></svg>