<svg xmlns="http://www.w3.org/2000/svg" width="64.584" height="55.604"><g data-name="Сгруппировать 6" fill="#AE0018"><g data-name="Сгруппировать 5"><path data-name="Контур 1" d="M10.565 41.27v1.429H8.582a.055.055 0 00-.062.062v4.77H7.091v-4.77a.055.055 0 00-.062-.062H5.037V41.27z"/><path data-name="Контур 2" d="M12.109 45.556a2.013 2.013 0 001.4.527 2.1 2.1 0 00.763-.139 2.04 2.04 0 00.648-.4 1.565 1.565 0 00.25-.277.109.109 0 00.009-.111.1.1 0 00-.1-.058h-2.3v-1.444H15.1a.1.1 0 00.094-.053.1.1 0 000-.108 2.026 2.026 0 00-.13-.165c-.044-.05-.091-.1-.138-.147a1.977 1.977 0 00-.648-.393 2.242 2.242 0 00-1.527 0 1.972 1.972 0 00-.647.393l-.411.375-.5-1.482.206-.161a3.589 3.589 0 013.384-.469 3.4 3.4 0 011.08.665 3.151 3.151 0 01.75 1.036 3.019 3.019 0 010 2.447 3.151 3.151 0 01-.75 1.036 3.533 3.533 0 01-1.08.66 3.472 3.472 0 01-1.268.233 3.422 3.422 0 01-2.107-.7l-.206-.152.5-1.482z"/><path data-name="Контур 3" d="M20.153 44.395l2.715 3.134h-1.884l-1.822-2.107a.087.087 0 00-.151.063v2.046h-1.465V41.27h1.465v2.045a.075.075 0 00.053.08.09.09 0 00.1-.027l1.822-2.1h1.884z"/><path data-name="Контур 4" d="M27.198 41.359a1.917 1.917 0 01.946.84 2.43 2.43 0 01.3 1c.029.355.044.728.044 1.121v.607h-.009a6.041 6.041 0 01-.084.777 2.317 2.317 0 01-.255.714 1.917 1.917 0 01-.946.84 3.505 3.505 0 01-1.465.259 3.576 3.576 0 01-1.464-.259 1.981 1.981 0 01-.938-.84 2.43 2.43 0 01-.3-1q-.045-.536-.045-1.116v-.607h.009a6.62 6.62 0 01.08-.777 2.114 2.114 0 01.259-.714 1.981 1.981 0 01.938-.84 3.576 3.576 0 011.464-.259 3.505 3.505 0 011.465.259zm-.152 2.956q0-.429-.018-.808a1.314 1.314 0 00-.143-.594.516.516 0 00-.067-.094.535.535 0 00-.174-.116 1.592 1.592 0 00-.339-.1 3.709 3.709 0 00-1.139 0 1.486 1.486 0 00-.339.1.53.53 0 00-.17.116.508.508 0 00-.067.094 1.285 1.285 0 00-.143.58c-.012.245-.018.506-.018.786v.018q0 .429.018.808a1.317 1.317 0 00.143.594c.012.018.034.048.067.089a.475.475 0 00.17.121 1.443 1.443 0 00.339.1 3.627 3.627 0 001.139 0 1.542 1.542 0 00.339-.1.479.479 0 00.174-.121c.033-.041.055-.071.067-.089a1.281 1.281 0 00.143-.58q.018-.366.018-.8z"/></g><path data-name="Контур 5" d="M32.292 0L9.047 40.025h8.323l14.921-25.689 19.86 34.195H22.765v.024H4.098l-4.1 7.052h64.584z"/></g></svg>