<svg xmlns="http://www.w3.org/2000/svg" width="64.584" height="55.604"><g data-name="Сгруппировать 109" fill="#161615"><g data-name="Сгруппировать 108"><path data-name="Контур 22" d="M10.565 41.27v1.429H8.582a.055.055 0 00-.062.062v4.769H7.091v-4.769a.055.055 0 00-.062-.062H5.037V41.27z"/><path data-name="Контур 23" d="M12.109 45.556a2.015 2.015 0 001.4.527 2.113 2.113 0 00.763-.138 2.06 2.06 0 00.648-.4 1.562 1.562 0 00.25-.277.108.108 0 00.009-.111.1.1 0 00-.1-.058h-2.3v-1.447H15.1a.1.1 0 00.094-.053.1.1 0 000-.108 1.978 1.978 0 00-.13-.165c-.044-.05-.091-.1-.138-.147a1.969 1.969 0 00-.648-.393 2.237 2.237 0 00-1.527 0 1.964 1.964 0 00-.647.393l-.411.375-.5-1.482.206-.161a3.588 3.588 0 013.384-.469 3.4 3.4 0 011.08.665 3.151 3.151 0 01.75 1.036 3.018 3.018 0 010 2.447 3.151 3.151 0 01-.75 1.036 3.536 3.536 0 01-1.08.66 3.477 3.477 0 01-1.268.233 3.421 3.421 0 01-2.107-.7l-.206-.152.5-1.482z"/><path data-name="Контур 24" d="M20.153 44.395l2.715 3.135h-1.884l-1.822-2.108a.087.087 0 00-.151.063v2.045h-1.465v-6.26h1.465v2.045a.075.075 0 00.053.08.091.091 0 00.1-.027l1.822-2.1h1.884z"/><path data-name="Контур 25" d="M27.198 41.359a1.918 1.918 0 01.946.84 2.431 2.431 0 01.3 1c.029.355.044.728.044 1.121v.607h-.009a6.037 6.037 0 01-.084.777 2.32 2.32 0 01-.255.714 1.918 1.918 0 01-.946.84 3.507 3.507 0 01-1.465.259 3.578 3.578 0 01-1.464-.259 1.982 1.982 0 01-.938-.84 2.431 2.431 0 01-.3-1q-.045-.535-.045-1.116v-.607h.009a6.616 6.616 0 01.08-.777 2.116 2.116 0 01.259-.714 1.982 1.982 0 01.938-.84 3.578 3.578 0 011.464-.259 3.507 3.507 0 011.465.259zm-.152 2.956q0-.429-.018-.808a1.314 1.314 0 00-.143-.594.521.521 0 00-.067-.094.534.534 0 00-.174-.116 1.581 1.581 0 00-.339-.1 3.633 3.633 0 00-1.139 0 1.478 1.478 0 00-.339.1.53.53 0 00-.17.116.512.512 0 00-.067.094 1.285 1.285 0 00-.143.58c-.012.245-.018.506-.018.786v.018q0 .429.018.808a1.315 1.315 0 00.143.594c.012.018.034.048.067.089a.476.476 0 00.17.121 1.5 1.5 0 00.339.1 3.673 3.673 0 001.139 0 1.607 1.607 0 00.339-.1.48.48 0 00.174-.121c.033-.041.055-.071.067-.089a1.279 1.279 0 00.143-.58q.018-.366.018-.8z"/></g><path data-name="Контур 26" d="M32.292 0L9.047 40.025h8.323l14.921-25.688L52.15 48.528H22.764v.024H4.098l-4.1 7.052h64.584z"/></g></svg>