<svg xmlns="http://www.w3.org/2000/svg" width="12.602" height="12.553"><g data-name="Сгруппировать 95" fill="#ae0018"><path data-name="Контур 11" d="M0 3.151c.042-.224.073-.45.127-.671A3.938 3.938 0 011.366.35a1.334 1.334 0 011.863.059q.882.877 1.758 1.758a1.339 1.339 0 01.006 1.936q-.309.316-.627.625a.116.116 0 00-.027.167 8.145 8.145 0 003.394 3.391.114.114 0 00.165-.028c.192-.2.393-.384.581-.585a1.365 1.365 0 012.018 0q.813.856 1.671 1.671a1.4 1.4 0 01.138 1.874 3.077 3.077 0 01-2.275 1.317 4.876 4.876 0 01-1.879-.217 9.784 9.784 0 01-3.537-1.9 17.371 17.371 0 01-3.7-4.055 5.718 5.718 0 01-.855-2.1c-.022-.124-.041-.249-.062-.373zm9.745 8.622c.112-.018.311-.044.508-.079a2.14 2.14 0 001.438-.984.586.586 0 00-.083-.817c-.574-.552-1.129-1.123-1.692-1.685a.558.558 0 00-.855 0q-.37.368-.74.74a.621.621 0 01-.8.12c-.37-.211-.741-.423-1.094-.661a8.845 8.845 0 01-2.876-3.306.627.627 0 01.125-.8l.748-.749a.551.551 0 00.014-.821q-.887-.89-1.776-1.775a.53.53 0 00-.744-.042 2.213 2.213 0 00-.383.38 3.577 3.577 0 00-.64 3.09 5.783 5.783 0 00.987 2.018 18.039 18.039 0 002.787 3.042 10.216 10.216 0 002.9 1.843 6.2 6.2 0 002.176.486z"/><path data-name="Контур 12" d="M11.472 4.905a.4.4 0 01-.785.089 3.684 3.684 0 00-2.741-3.013 2.454 2.454 0 00-.325-.061.4.4 0 01-.329-.458.4.4 0 01.454-.321 4.531 4.531 0 013.693 3.541c.017.084.025.17.033.223z"/><path data-name="Контур 13" d="M7.374 2.781a2.254 2.254 0 01.767.243 3.135 3.135 0 011.715 2.111.776.776 0 01.021.313.377.377 0 01-.387.311.407.407 0 01-.381-.337 2.336 2.336 0 00-1.715-1.837c-.054-.016-.112-.02-.167-.034a.4.4 0 01-.3-.431.408.408 0 01.447-.339z"/></g></svg>