<svg xmlns="http://www.w3.org/2000/svg" width="47.951" height="54.404"><path data-name="Контур 28" d="M22.317 24.335v-4.122l-3.584-2.061v4.122zm0-7.975v-4.122l-7.079-4.032a1.706 1.706 0 111.7-2.957l5.376 3.136V2.202a1.648 1.648 0 011.7-1.7 1.628 1.628 0 011.613 1.7v6.183l5.376-3.136a1.733 1.733 0 012.33.627 1.755 1.755 0 01-.627 2.33l-7.079 4.032v4.122l4.391-2.6a1.684 1.684 0 012.509 1.524v5.017l3.584-2.061v-8.064a1.648 1.648 0 011.7-1.7 1.628 1.628 0 011.613 1.7v6.183l5.386-3.132a1.733 1.733 0 012.33.627 1.755 1.755 0 01-.627 2.33l-5.376 3.046 5.376 3.136a1.628 1.628 0 01.627 2.24 1.732 1.732 0 01-2.33.628l-6.989-4.033-3.584 2.061 4.391 2.509a1.644 1.644 0 010 2.868l-4.391 2.6 3.584 2.061 6.989-4.122a1.733 1.733 0 012.33.627 1.755 1.755 0 01-.627 2.33l-5.376 3.047 5.376 3.136a1.627 1.627 0 01.627 2.24 1.732 1.732 0 01-2.33.627l-5.376-3.046v6.182a1.606 1.606 0 01-1.613 1.613 1.628 1.628 0 01-1.7-1.613v-8.154l-3.584-2.061v5.108a1.69 1.69 0 01-2.509 1.433l-4.391-2.508v4.032l7.079 4.121a1.628 1.628 0 01.627 2.241 1.733 1.733 0 01-2.33.627l-5.376-3.047v6.183a1.607 1.607 0 01-1.613 1.613 1.628 1.628 0 01-1.7-1.613v-6.183l-5.376 3.047a1.755 1.755 0 01-2.33-.627 1.628 1.628 0 01.627-2.241l7.079-4.121v-4.032l-4.391 2.508a1.673 1.673 0 01-2.509-1.433v-5.108l-3.584 2.061v8.154a1.628 1.628 0 01-1.7 1.613 1.606 1.606 0 01-1.613-1.613v-6.182l-5.376 3.046a1.732 1.732 0 01-2.33-.627 1.627 1.627 0 01.627-2.24l5.376-3.136-5.376-3.047a1.755 1.755 0 01-.627-2.33 1.732 1.732 0 012.33-.627L10.14 33.3l3.584-2.061-4.391-2.6a1.644 1.644 0 010-2.868l4.391-2.509-3.584-2.061-6.989 4.033a1.732 1.732 0 01-2.33-.628 1.627 1.627 0 01.627-2.24l5.376-3.136-5.376-3.046a1.755 1.755 0 01-.627-2.33 1.732 1.732 0 012.33-.627l5.376 3.136V10.18a1.628 1.628 0 011.613-1.7 1.648 1.648 0 011.7 1.7v8.064l3.584 2.061v-5.017a1.634 1.634 0 012.509-1.434zm3.315 3.853v4.122l3.584-2.061v-4.122zm8.781 6.989l-3.494-2.061-3.584 2.061 3.584 2.061zm-5.2 9.05V32.22l-3.584-2.061v4.032zm-10.483 0l3.584-2.061v-4.032L18.73 32.22zm-5.2-9.05l3.494 2.061 3.584-2.061-3.584-2.061z" fill="#fff" stroke="#ae0018" stroke-linecap="round" stroke-linejoin="round"/></svg>