<svg xmlns="http://www.w3.org/2000/svg" width="22.302" height="54.443"><path data-name="Контур 27" d="M14.747 31.951h-1.255a1.658 1.658 0 110-3.315h1.255v-2.33h-1.255a1.763 1.763 0 01-1.7-1.7 1.7 1.7 0 011.7-1.7h1.255v-2.33h-1.255a1.702 1.702 0 010-3.405h1.255v-2.329h-1.255a1.702 1.702 0 010-3.405h1.255V7.404a3.584 3.584 0 10-7.168 0v28.674a1.667 1.667 0 01-.807 1.344 8.553 8.553 0 00-2.15 2.6 7.219 7.219 0 00-.717 4.122 7.438 7.438 0 002.6 4.839 7.3 7.3 0 0011.111-8.961 6.319 6.319 0 00-2.24-2.6 1.731 1.731 0 01-.627-1.344zm-3.584 10.215a1.279 1.279 0 00-1.076.537 1.218 1.218 0 00.18 1.434 1.246 1.246 0 001.7 0 1.179 1.179 0 00.269-1.075 1.065 1.065 0 00-1.075-.9zm0-3.405a4.809 4.809 0 014.121 2.6 4.677 4.677 0 01-.9 5.108 4.566 4.566 0 01-7.347-5.2 4.618 4.618 0 014.122-2.509zm-9.5-.269a11.548 11.548 0 012.509-3.315V7.399a6.944 6.944 0 0113.888 0v27.778a11.844 11.844 0 012.6 3.315 10.8 10.8 0 01-1.972 12.365 10.655 10.655 0 01-14.515.448 10.408 10.408 0 01-3.585-6.81 10.032 10.032 0 011.076-6z" fill="#fff" stroke="#ae0018" stroke-linecap="round" stroke-linejoin="round"/></svg>